# xmcd
#
# Track frame offsets: 
#        150
#        14992
#        29490
#        48750
#        60960
#        77975
#        93855
#        106245
#        120380
#        136732
#
# Disc length: 2018 seconds
#
# Revision: 4
# Processed by: cddbd v1.4PL0 Copyright (c) Steve Scherf et al.
# Submitted via: ExactAudioCopy v0.90b4
#
DISCID=7607e00a
DTITLE=Reba McEntire - The Last One To Know
DYEAR=1987
DGENRE=Country
TTITLE0=The Last One To Know
TTITLE1=The Girl Who Has Everything
TTITLE2=Just Across The Rio Grande
TTITLE3=I Don't Want To Mention Any Names
TTITLE4=Someone Else
TTITLE5=What You Gonna Do About Me
TTITLE6=I Don't Want To Be Alone
TTITLE7=The Stairs
TTITLE8=Love Will Find Its Way To You
TTITLE9=I've Still Got The Love We Made
EXTD=YEAR: 1987
EXTT0=
EXTT1=
EXTT2=
EXTT3=
EXTT4=
EXTT5=
EXTT6=
EXTT7=
EXTT8=
EXTT9=
PLAYORDER=
